<?xml version="1.0" encoding="UTF-8"?>
<svg version="1.1" xmlns="http://www.w3.org/2000/svg" width="500" height="500">
<path d="M0 0 C165 0 330 0 500 0 C500 165 500 330 500 500 C335 500 170 500 0 500 C0 335 0 170 0 0 Z " fill="#000000" transform="translate(0,0)"/>
<path d="M0 0 C28 0 28 0 36 4 C42.34407622 10.61403691 42.43392296 16.4091546 42.28125 25.08984375 C41.9225736 30.07644198 41.23241029 32.24341507 38 36 C35.25 37.9375 35.25 37.9375 33 39 C33.9075 39.556875 34.815 40.11375 35.75 40.6875 C40.14788054 43.81676116 42.9508101 46.6613285 44 52 C44.83507129 60.50187142 45.58900776 70.06939044 40.56640625 77.3671875 C37.24285118 80.83164141 33.53965215 82.48678262 29 84 C19.43 84 9.86 84 0 84 C0 56.28 0 28.56 0 0 Z " fill="#F7EBBC" transform="translate(324,202)"/>
<path d="M0 0 C3.96 0 7.92 0 12 0 C15.03220194 11.32616608 17.43371375 22.75124155 19.77441406 34.23779297 C21.67627811 43.53700944 23.73255684 52.78351044 26 62 C27.92236923 58.61252412 28.71053225 55.32243575 29.515625 51.5234375 C29.65207932 50.88846344 29.78853363 50.25348938 29.92912292 49.59927368 C30.22197383 48.23431889 30.51244159 46.86885102 30.80075073 45.50292969 C31.56071371 41.90326264 32.33795663 38.30732127 33.11328125 34.7109375 C33.26970596 33.98316101 33.42613068 33.25538452 33.58729553 32.5055542 C35.13582284 25.32108975 36.77434777 18.15882963 38.4375 11 C38.6962793 9.88544434 38.95505859 8.77088867 39.22167969 7.62255859 C39.81288688 5.08134084 40.40617647 2.54060765 41 0 C44.96 0 48.92 0 53 0 C53.88698189 18.88561443 54.12549124 37.72049836 54.0625 56.625 C54.05687656 59.30077975 54.05283647 61.97656115 54.04882812 64.65234375 C54.03799297 71.1015835 54.02141031 77.55078711 54 84 C51.03 84 48.06 84 45 84 C44.01 56.775 44.01 56.775 43 29 C40.54612004 40.08163414 40.54612004 40.08163414 38.09472656 51.16381836 C36.36497507 58.97301537 34.60969189 66.77603677 32.796875 74.56640625 C32.63092834 75.28674545 32.46498169 76.00708466 32.29400635 76.74925232 C31.1173488 81.76530239 31.1173488 81.76530239 30 84 C27.69 84 25.38 84 23 84 C20.11117971 73.56175452 17.62651581 63.09156775 15.375 52.5 C14.92484279 50.38988807 14.47353619 48.28004425 14.0194397 46.17077637 C13.61237954 44.27912871 13.20913313 42.38666152 12.80615234 40.49414062 C11.99212747 36.96587775 10.99475133 33.48162967 10 30 C9.67 47.82 9.34 65.64 9 84 C5.7 84 2.4 84 -1 84 C-1.20638953 22.92140101 -1.20638953 22.92140101 0 0 Z " fill="#F5E9BA" transform="translate(239,202)"/>
<path d="M0 0 C26 0 26 0 36 5 C41.55268015 10.77478736 41.45004967 16.11669521 41.52001953 23.74511719 C41.38324153 29.43768724 40.33494095 34.4150897 36.39453125 38.77734375 C34.19726562 40.38867188 34.19726562 40.38867188 32 42 C34.51531503 51.63217697 37.17585425 61.21238201 39.98095703 70.7644043 C41.25687941 75.16197258 42.37996023 79.45055159 43 84 C39.04 84 35.08 84 31 84 C30.52949219 82.25074219 30.05898437 80.50148438 29.57421875 78.69921875 C28.94532225 76.36197654 28.31641545 74.02473711 27.6875 71.6875 C27.37876953 70.53958984 27.07003906 69.39167969 26.75195312 68.20898438 C26.44580078 67.07138672 26.13964844 65.93378906 25.82421875 64.76171875 C25.5204834 63.63169434 25.21674805 62.50166992 24.90380859 61.33740234 C24.30956863 59.14311267 23.7085234 56.9506526 23.10009766 54.76025391 C22.82601074 53.77331543 22.55192383 52.78637695 22.26953125 51.76953125 C22.02436768 50.89530518 21.7792041 50.0210791 21.52661133 49.12036133 C21 47 21 47 21 45 C18.03 45 15.06 45 12 45 C12 57.87 12 70.74 12 84 C8.04 84 4.08 84 0 84 C0 56.28 0 28.56 0 0 Z " fill="#F7ECBC" transform="translate(166,202)"/>
<path d="M0 0 C4.29 0 8.58 0 13 0 C13.20044922 0.99290039 13.40089844 1.98580078 13.60742188 3.00878906 C14.56734281 7.75673025 15.53273957 12.50354904 16.5 17.25 C16.67685333 18.11836487 16.85370667 18.98672974 17.03591919 19.88140869 C19.03987917 29.70131991 21.08519161 39.50925958 23.27734375 49.2890625 C23.45983673 50.10322632 23.64232971 50.91739014 23.83035278 51.75622559 C24.70222815 55.63415838 25.582764 59.50995295 26.47265625 63.38378906 C28.03668022 70.24540133 29.4421146 76.97535842 30 84 C26.37 84 22.74 84 19 84 C18.33089194 80.87550432 17.66460784 77.75045306 17 74.625 C16.80921875 73.73554688 16.6184375 72.84609375 16.421875 71.9296875 C16.24140625 71.07890625 16.0609375 70.228125 15.875 69.3515625 C15.62363281 68.17327881 15.62363281 68.17327881 15.3671875 66.97119141 C15 65 15 65 15 63 C9.39 63 3.78 63 -2 63 C-2.28875 64.794375 -2.5775 66.58875 -2.875 68.4375 C-3.74487611 73.67539689 -4.79368847 78.83009343 -6 84 C-9.63 84 -13.26 84 -17 84 C-16.12578867 77.03716391 -14.69768615 70.18886582 -13.3125 63.3125 C-13.18127747 62.65849213 -13.05005493 62.00448425 -12.91485596 61.33065796 C-10.288884 48.2497207 -7.50301421 35.20465968 -4.68164062 22.16455078 C-3.64737667 17.36292853 -2.6341345 12.55695743 -1.625 7.75 C-1.45726074 6.95118408 -1.28952148 6.15236816 -1.11669922 5.3293457 C-0.74402044 3.55299059 -0.37192987 1.77651207 0 0 Z " fill="#F6EABB" transform="translate(109,202)"/>
<path d="M0 0 C13 0 13 0 18 3 C21.90267071 9.1904432 21.67084507 15.85963537 21 23 C19.21118247 28.46060089 18.18408356 28.88954987 13 32 C8.71 32 4.42 32 0 32 C0 21.44 0 10.88 0 0 Z " fill="#080806" transform="translate(336,246)"/>
<path d="M0 0 C13.24210988 -0.49503214 13.24210988 -0.49503214 16.89453125 1.890625 C20.18626339 5.18846424 20.18241546 7.24491157 20.25 11.8125 C20.27578125 12.85019531 20.3015625 13.88789063 20.328125 14.95703125 C19.94786116 18.48352565 19.1766634 20.21292447 17 23 C12 26 12 26 0 26 C0 17.42 0 8.84 0 0 Z " fill="#070705" transform="translate(336,211)"/>
<path d="M0 0 C12 0 12 0 15.1875 1.875 C18.20597599 5.41390289 18.18743231 7.70856074 18.25 12.3125 C18.27578125 13.44300781 18.3015625 14.57351562 18.328125 15.73828125 C17.87442103 20.24831478 16.31299633 22.84615474 12.9375 25.8125 C10 27 10 27 0 27 C0 18.09 0 9.18 0 0 Z " fill="#020202" transform="translate(178,211)"/>
<path d="M0 0 C1.87609607 3.30035487 2.60222203 6.3990858 3.2890625 10.12109375 C3.61777344 11.89516602 3.61777344 11.89516602 3.953125 13.70507812 C4.17484375 14.93677734 4.3965625 16.16847656 4.625 17.4375 C4.85445312 18.66533203 5.08390625 19.89316406 5.3203125 21.15820312 C6.24870915 26.23399076 7 30.81920357 7 36 C2.71 36 -1.58 36 -6 36 C-5.34825236 28.60673774 -4.29998367 21.36784302 -3 14.0625 C-2.82210937 13.03576172 -2.64421875 12.00902344 -2.4609375 10.95117188 C-1.13455704 3.40367112 -1.13455704 3.40367112 0 0 Z " fill="#0A0907" transform="translate(115,220)"/>
<path d="M0 0 C3.63 0 7.26 0 11 0 C11 4.29 11 8.58 11 13 C7.37 13 3.74 13 0 13 C0 8.71 0 4.42 0 0 Z " fill="#EEE2B5" transform="translate(396,273)"/>
</svg>
